<svg width="20" height="20" viewBox="0 0 20 20" fill="none" xmlns="http://www.w3.org/2000/svg">
<path d="M14.9992 0.00416134L12.4056 0C9.49191 0 7.60893 1.9319 7.60893 4.92203V7.19141H5.00125C4.77592 7.19141 4.59344 7.37409 4.59344 7.59943V10.8875C4.59344 11.1128 4.77613 11.2953 5.00125 11.2953H7.60893V19.5922C7.60893 19.8175 7.7914 20 8.01673 20H11.419C11.6443 20 11.8268 19.8173 11.8268 19.5922V11.2953H14.8758C15.1011 11.2953 15.2836 11.1128 15.2836 10.8875L15.2848 7.59943C15.2848 7.49123 15.2418 7.38762 15.1654 7.31105C15.0891 7.23448 14.985 7.19141 14.8768 7.19141H11.8268V5.26763C11.8268 4.34298 12.0472 3.87358 13.2516 3.87358L14.9988 3.87295C15.2239 3.87295 15.4064 3.69027 15.4064 3.46514V0.411972C15.4064 0.187052 15.2241 0.00457747 14.9992 0.00416134Z" fill="#2C3E50" fill-opacity="0.3"/>
</svg>
