<svg width="20" height="20" viewBox="0 0 20 20" fill="none" xmlns="http://www.w3.org/2000/svg">
<g clip-path="url(#clip0)">
<path d="M20.0009 3.7992C19.2648 4.12537 18.475 4.34658 17.6451 4.44534C18.4925 3.93792 19.1411 3.13309 19.4485 2.17701C18.6537 2.64691 17.7763 2.98812 16.8415 3.17309C16.0929 2.37449 15.0281 1.87708 13.8471 1.87708C11.5812 1.87708 9.74408 3.71423 9.74408 5.9788C9.74408 6.29998 9.78032 6.61367 9.85032 6.91363C6.44098 6.74239 3.41781 5.10896 1.39444 2.62691C1.04075 3.23181 0.839539 3.93665 0.839539 4.68903C0.839539 6.11252 1.56441 7.36854 2.66421 8.10337C1.99183 8.08089 1.35944 7.89592 0.805813 7.58847V7.63971C0.805813 9.62683 2.22055 11.2853 4.09643 11.6627C3.75274 11.7552 3.39032 11.8064 3.01539 11.8064C2.75045 11.8064 2.49424 11.7802 2.24304 11.7302C2.76542 13.3611 4.28016 14.5472 6.07483 14.5797C4.67134 15.6795 2.90166 16.3331 0.979539 16.3331C0.648362 16.3331 0.322153 16.3131 0.000976562 16.2769C1.81689 17.4429 3.97274 18.1228 6.2898 18.1228C13.8371 18.1228 17.9626 11.8714 17.9626 6.44998L17.9489 5.91883C18.7549 5.3439 19.4523 4.62155 20.0009 3.7992Z" fill="#2C3E50" fill-opacity="0.3"/>
</g>
<defs>
<clipPath id="clip0">
<rect width="20" height="20" fill="white"/>
</clipPath>
</defs>
</svg>
